<?xml version="1.0" encoding="utf-8"?>
<!-- Generator: Adobe Illustrator 22.0.1, SVG Export Plug-In . SVG Version: 6.00 Build 0)  -->
<svg version="1.1" id="Layer_1" xmlns="http://www.w3.org/2000/svg" xmlns:xlink="http://www.w3.org/1999/xlink" x="0px" y="0px"
	 viewBox="0 0 680 744" style="enable-background:new 0 0 680 744;" xml:space="preserve">
<style type="text/css">
	.st0{fill:#FFFFFF;}
	.st1{fill:none;stroke:#262626;stroke-width:0.5;stroke-linejoin:round;stroke-miterlimit:10;}
	.st2{fill:#A6D854;fill-opacity:0.502;}
	.st3{fill:none;stroke:#A6D854;stroke-width:0.5;stroke-miterlimit:10;}
	.st4{fill:none;stroke:#A6D854;stroke-width:2;stroke-linejoin:round;stroke-miterlimit:10;}
	.st5{fill:#A6D854;}
	.st6{fill:none;stroke:#A6D854;stroke-width:2;stroke-miterlimit:10;}
	.st7{fill:#E78AC3;fill-opacity:0.502;}
	.st8{fill:none;stroke:#E78AC3;stroke-width:0.5;stroke-miterlimit:10;}
	.st9{fill:none;stroke:#E78AC3;stroke-width:2;stroke-linejoin:round;stroke-miterlimit:10;}
	.st10{fill:#E78AC3;}
	.st11{fill:none;stroke:#E78AC3;stroke-width:2;stroke-miterlimit:10;}
	.st12{fill:#8DA0CB;fill-opacity:0.502;}
	.st13{fill:none;stroke:#8DA0CB;stroke-width:0.5;stroke-miterlimit:10;}
	.st14{fill:none;stroke:#8DA0CB;stroke-width:2;stroke-linejoin:round;stroke-miterlimit:10;}
	.st15{fill:#8DA0CB;}
	.st16{fill:none;stroke:#8DA0CB;stroke-width:2;stroke-miterlimit:10;}
	.st17{fill:#FC8D62;fill-opacity:0.502;}
	.st18{fill:none;stroke:#FC8D62;stroke-width:0.5;stroke-miterlimit:10;}
	.st19{fill:none;stroke:#FC8D62;stroke-width:2;stroke-linejoin:round;stroke-miterlimit:10;}
	.st20{fill:#FC8D62;}
	.st21{fill:none;stroke:#FC8D62;stroke-width:2;stroke-miterlimit:10;}
	.st22{fill:#66C2A5;fill-opacity:0.502;}
	.st23{fill:none;stroke:#66C2A5;stroke-width:0.5;stroke-miterlimit:10;}
	.st24{fill:none;stroke:#66C2A5;stroke-width:2;stroke-linejoin:round;stroke-miterlimit:10;}
	.st25{fill:#66C2A5;}
	.st26{fill:none;stroke:#66C2A5;stroke-width:2;stroke-miterlimit:10;}
	.st27{fill:none;stroke:#262626;stroke-width:0.5;stroke-linecap:square;stroke-linejoin:round;stroke-miterlimit:10;}
	.st28{font-family:'HelveticaNeue';}
	.st29{font-size:17.3744px;}
	.st30{font-size:11.3054px;}
</style>
<g>
	<g>
		<g>
			<defs>
				<rect id="SVGID_1_" x="24" y="29.7" width="680" height="744"/>
			</defs>
			<clipPath id="SVGID_2_">
				<use xlink:href="#SVGID_1_"  style="overflow:visible;"/>
			</clipPath>
		</g>
	</g>
	<g>
		<path class="st0" d="M39.3,327.5h232.3V71.8H39.3V327.5z"/>
	</g>
	<g>
		<line class="st1" x1="200.1" y1="327.5" x2="200.1" y2="71.8"/>
	</g>
	<g>
		<path class="st2" d="M200.1,320.2v-9.7h-25.1v9.7H200.1z"/>
	</g>
	<g>
		<path class="st3" d="M200.1,320.2h-25.1v-9.7h25.1V320.2z"/>
		<line class="st4" x1="175.1" y1="315.3" x2="131.1" y2="315.3"/>
		<line class="st4" x1="175.1" y1="315.3" x2="183" y2="315.3"/>
	</g>
	<g transform="translate(178.1234,298.0476)">
		<path class="st5" d="M-47,14.2v6.1"/>
	</g>
	<g transform="translate(178.1234,298.0476)">
		<path class="st6" d="M-47,14.2v6.1"/>
	</g>
	<g transform="translate(229.0482,298.0476)">
		<path class="st5" d="M-46,14.2v6.1"/>
	</g>
	<g transform="translate(229.0482,298.0476)">
		<path class="st6" d="M-46,14.2v6.1"/>
	</g>
	<g>
		<path class="st2" d="M200.1,308v-9.7h-46.7v9.7H200.1z"/>
	</g>
	<g>
		<path class="st3" d="M200.1,308h-46.7v-9.7h46.7V308z"/>
		<line class="st4" x1="153.5" y1="303.1" x2="92.6" y2="303.1"/>
		<line class="st4" x1="153.5" y1="303.1" x2="183.7" y2="303.1"/>
	</g>
	<g transform="translate(140.2615,286.0952)">
		<path class="st5" d="M-47.7,14v6.1"/>
	</g>
	<g transform="translate(140.2615,286.0952)">
		<path class="st6" d="M-47.7,14v6.1"/>
	</g>
	<g transform="translate(229.6939,286.0952)">
		<path class="st5" d="M-46,14v6.1"/>
	</g>
	<g transform="translate(229.6939,286.0952)">
		<path class="st6" d="M-46,14v6.1"/>
	</g>
	<g>
		<path class="st2" d="M200.1,295.8v-9.7h-61v9.7H200.1z"/>
	</g>
	<g>
		<path class="st3" d="M200.1,295.8h-61v-9.7h61V295.8z"/>
		<line class="st4" x1="139.1" y1="290.9" x2="60.4" y2="290.9"/>
		<line class="st4" x1="139.1" y1="290.9" x2="180.8" y2="290.9"/>
	</g>
	<g transform="translate(108.7253,274.1429)">
		<path class="st5" d="M-48.3,13.7v6.1"/>
	</g>
	<g transform="translate(108.7253,274.1429)">
		<path class="st6" d="M-48.3,13.7v6.1"/>
	</g>
	<g transform="translate(226.8989,274.1429)">
		<path class="st5" d="M-46.1,13.7v6.1"/>
	</g>
	<g transform="translate(226.8989,274.1429)">
		<path class="st6" d="M-46.1,13.7v6.1"/>
	</g>
	<g>
		<path class="st2" d="M200.1,283.6v-9.7h-58.7v9.7H200.1z"/>
	</g>
	<g>
		<path class="st3" d="M200.1,283.6h-58.7v-9.7h58.7V283.6z"/>
		<line class="st4" x1="141.4" y1="278.8" x2="63.8" y2="278.8"/>
		<line class="st4" x1="141.4" y1="278.8" x2="175.9" y2="278.8"/>
	</g>
	<g transform="translate(111.9913,262.1905)">
		<path class="st5" d="M-48.2,13.5v6.1"/>
	</g>
	<g transform="translate(111.9913,262.1905)">
		<path class="st6" d="M-48.2,13.5v6.1"/>
	</g>
	<g transform="translate(222.0386,262.1905)">
		<path class="st5" d="M-46.2,13.5v6.1"/>
	</g>
	<g transform="translate(222.0386,262.1905)">
		<path class="st6" d="M-46.2,13.5v6.1"/>
	</g>
	<g>
		<path class="st2" d="M200.1,271.5v-9.7h-61.3v9.7H200.1z"/>
	</g>
	<g>
		<path class="st3" d="M200.1,271.5h-61.3v-9.7h61.3V271.5z"/>
		<line class="st4" x1="138.8" y1="266.6" x2="63.3" y2="266.6"/>
		<line class="st4" x1="138.8" y1="266.6" x2="185.3" y2="266.6"/>
	</g>
	<g transform="translate(111.537,250.2381)">
		<path class="st5" d="M-48.2,13.3v6.1"/>
	</g>
	<g transform="translate(111.537,250.2381)">
		<path class="st6" d="M-48.2,13.3v6.1"/>
	</g>
	<g transform="translate(231.3092,250.2381)">
		<path class="st5" d="M-46,13.3v6.1"/>
	</g>
	<g transform="translate(231.3092,250.2381)">
		<path class="st6" d="M-46,13.3v6.1"/>
	</g>
	<g>
		<path class="st2" d="M200.1,259.3v-9.7h-47v9.7H200.1z"/>
	</g>
	<g>
		<path class="st3" d="M200.1,259.3h-47v-9.7h47V259.3z"/>
		<line class="st4" x1="153.1" y1="254.4" x2="90.3" y2="254.4"/>
		<line class="st4" x1="153.1" y1="254.4" x2="178.2" y2="254.4"/>
	</g>
	<g transform="translate(137.9884,238.2857)">
		<path class="st5" d="M-47.7,13.1v6.1"/>
	</g>
	<g transform="translate(137.9884,238.2857)">
		<path class="st6" d="M-47.7,13.1v6.1"/>
	</g>
	<g transform="translate(224.3614,238.2857)">
		<path class="st5" d="M-46.1,13.1v6.1"/>
	</g>
	<g transform="translate(224.3614,238.2857)">
		<path class="st6" d="M-46.1,13.1v6.1"/>
	</g>
	<g>
		<path class="st7" d="M200.1,247.1v-9.7h9.5v9.7H200.1z"/>
	</g>
	<g>
		<path class="st8" d="M200.1,247.1h9.5v-9.7h-9.5V247.1z"/>
		<line class="st9" x1="209.6" y1="242.2" x2="209.3" y2="242.2"/>
		<line class="st9" x1="209.6" y1="242.2" x2="238.5" y2="242.2"/>
	</g>
	<g transform="translate(254.8723,226.3333)">
		<path class="st10" d="M-45.5,12.9V19"/>
	</g>
	<g transform="translate(254.8723,226.3333)">
		<path class="st11" d="M-45.5,12.9V19"/>
	</g>
	<g transform="translate(283.5134,226.3333)">
		<path class="st10" d="M-45,12.9V19"/>
	</g>
	<g transform="translate(283.5134,226.3333)">
		<path class="st11" d="M-45,12.9V19"/>
	</g>
	<g>
		<path class="st7" d="M200.1,234.9v-9.7h14.3v9.7H200.1z"/>
	</g>
	<g>
		<path class="st8" d="M200.1,234.9h14.3v-9.7h-14.3V234.9z"/>
		<line class="st9" x1="214.5" y1="230.1" x2="207.6" y2="230.1"/>
		<line class="st9" x1="214.5" y1="230.1" x2="243.6" y2="230.1"/>
	</g>
	<g transform="translate(253.185,214.381)">
		<path class="st10" d="M-45.6,12.6v6.1"/>
	</g>
	<g transform="translate(253.185,214.381)">
		<path class="st11" d="M-45.6,12.6v6.1"/>
	</g>
	<g transform="translate(288.5683,214.381)">
		<path class="st10" d="M-44.9,12.6v6.1"/>
	</g>
	<g transform="translate(288.5683,214.381)">
		<path class="st11" d="M-44.9,12.6v6.1"/>
	</g>
	<g>
		<path class="st7" d="M200.1,222.8V213h0.7v9.7H200.1z"/>
	</g>
	<g>
		<path class="st8" d="M200.1,222.8h0.7V213h-0.7V222.8z"/>
		<line class="st9" x1="200.8" y1="217.9" x2="191.3" y2="217.9"/>
		<line class="st9" x1="200.8" y1="217.9" x2="218.5" y2="217.9"/>
	</g>
	<g transform="translate(237.1605,202.4286)">
		<path class="st10" d="M-45.9,12.4v6.1"/>
	</g>
	<g transform="translate(237.1605,202.4286)">
		<path class="st11" d="M-45.9,12.4v6.1"/>
	</g>
	<g transform="translate(263.9048,202.4286)">
		<path class="st10" d="M-45.4,12.4v6.1"/>
	</g>
	<g transform="translate(263.9048,202.4286)">
		<path class="st11" d="M-45.4,12.4v6.1"/>
	</g>
	<g>
		<path class="st7" d="M200.1,210.6v-9.7h6.6v9.7H200.1z"/>
	</g>
	<g>
		<path class="st8" d="M200.1,210.6h6.6v-9.7h-6.6V210.6z"/>
		<line class="st9" x1="206.7" y1="205.7" x2="206.2" y2="205.7"/>
		<line class="st9" x1="206.7" y1="205.7" x2="221.6" y2="205.7"/>
	</g>
	<g transform="translate(251.8535,190.4762)">
		<path class="st10" d="M-45.6,12.2v6.1"/>
	</g>
	<g transform="translate(251.8535,190.4762)">
		<path class="st11" d="M-45.6,12.2v6.1"/>
	</g>
	<g transform="translate(266.9092,190.4762)">
		<path class="st10" d="M-45.3,12.2v6.1"/>
	</g>
	<g transform="translate(266.9092,190.4762)">
		<path class="st11" d="M-45.3,12.2v6.1"/>
	</g>
	<g>
		<path class="st7" d="M200.1,198.4v-9.7h10.6v9.7H200.1z"/>
	</g>
	<g>
		<path class="st8" d="M200.1,198.4h10.6v-9.7h-10.6V198.4z"/>
		<line class="st9" x1="210.8" y1="193.5" x2="210.5" y2="193.5"/>
		<line class="st9" x1="210.8" y1="193.5" x2="243.4" y2="193.5"/>
	</g>
	<g transform="translate(256.07,178.5238)">
		<path class="st10" d="M-45.5,12v6.1"/>
	</g>
	<g transform="translate(256.07,178.5238)">
		<path class="st11" d="M-45.5,12v6.1"/>
	</g>
	<g transform="translate(288.3217,178.5238)">
		<path class="st10" d="M-44.9,12v6.1"/>
	</g>
	<g transform="translate(288.3217,178.5238)">
		<path class="st11" d="M-44.9,12v6.1"/>
	</g>
	<g>
		<path class="st7" d="M200.1,186.2v-9.7h11.6v9.7H200.1z"/>
	</g>
	<g>
		<path class="st8" d="M200.1,186.2h11.6v-9.7h-11.6V186.2z"/>
		<line class="st9" x1="211.7" y1="181.4" x2="210.3" y2="181.4"/>
		<line class="st9" x1="211.7" y1="181.4" x2="244.6" y2="181.4"/>
	</g>
	<g transform="translate(255.8383,166.5714)">
		<path class="st10" d="M-45.5,11.7v6.1"/>
	</g>
	<g transform="translate(255.8383,166.5714)">
		<path class="st11" d="M-45.5,11.7v6.1"/>
	</g>
	<g transform="translate(289.5125,166.5714)">
		<path class="st10" d="M-44.9,11.7v6.1"/>
	</g>
	<g transform="translate(289.5125,166.5714)">
		<path class="st11" d="M-44.9,11.7v6.1"/>
	</g>
	<g>
		<path class="st7" d="M200.1,174.1v-9.7h16v9.7H200.1z"/>
	</g>
	<g>
		<path class="st8" d="M200.1,174.1h16v-9.7h-16V174.1z"/>
		<line class="st9" x1="216.2" y1="169.2" x2="208.8" y2="169.2"/>
		<line class="st9" x1="216.2" y1="169.2" x2="250.1" y2="169.2"/>
	</g>
	<g transform="translate(254.3454,154.619)">
		<path class="st10" d="M-45.6,11.5v6.1"/>
	</g>
	<g transform="translate(254.3454,154.619)">
		<path class="st11" d="M-45.6,11.5v6.1"/>
	</g>
	<g transform="translate(294.9279,154.619)">
		<path class="st10" d="M-44.8,11.5v6.1"/>
	</g>
	<g transform="translate(294.9279,154.619)">
		<path class="st11" d="M-44.8,11.5v6.1"/>
	</g>
	<g>
		<path class="st12" d="M200.1,161.9v-9.7h13.6v9.7H200.1z"/>
	</g>
	<g>
		<path class="st13" d="M200.1,161.9h13.6v-9.7h-13.6V161.9z"/>
		<line class="st14" x1="213.7" y1="157" x2="208.7" y2="157"/>
		<line class="st14" x1="213.7" y1="157" x2="237.8" y2="157"/>
	</g>
	<g transform="translate(254.2217,142.6667)">
		<path class="st15" d="M-45.6,11.3v6.1"/>
	</g>
	<g transform="translate(254.2217,142.6667)">
		<path class="st16" d="M-45.6,11.3v6.1"/>
	</g>
	<g transform="translate(282.7863,142.6667)">
		<path class="st15" d="M-45,11.3v6.1"/>
	</g>
	<g transform="translate(282.7863,142.6667)">
		<path class="st16" d="M-45,11.3v6.1"/>
	</g>
	<g>
		<path class="st12" d="M200.1,149.7V140H214v9.7H200.1z"/>
	</g>
	<g>
		<path class="st13" d="M200.1,149.7H214V140h-13.9V149.7z"/>
		<line class="st14" x1="214" y1="144.8" x2="208.6" y2="144.8"/>
		<line class="st14" x1="214" y1="144.8" x2="238.4" y2="144.8"/>
	</g>
	<g transform="translate(254.1765,130.7143)">
		<path class="st15" d="M-45.6,11.1v6.1"/>
	</g>
	<g transform="translate(254.1765,130.7143)">
		<path class="st16" d="M-45.6,11.1v6.1"/>
	</g>
	<g transform="translate(283.3819,130.7143)">
		<path class="st15" d="M-45,11.1v6.1"/>
	</g>
	<g transform="translate(283.3819,130.7143)">
		<path class="st16" d="M-45,11.1v6.1"/>
	</g>
	<g>
		<path class="st17" d="M200.1,137.5v-9.7H211v9.7H200.1z"/>
	</g>
	<g>
		<path class="st18" d="M200.1,137.5H211v-9.7h-10.9V137.5z"/>
		<line class="st19" x1="211" y1="132.7" x2="207.5" y2="132.7"/>
		<line class="st19" x1="211" y1="132.7" x2="229.4" y2="132.7"/>
	</g>
	<g transform="translate(253.1281,118.7619)">
		<path class="st20" d="M-45.6,10.8V17"/>
	</g>
	<g transform="translate(253.1281,118.7619)">
		<path class="st21" d="M-45.6,10.8V17"/>
	</g>
	<g transform="translate(274.5766,118.7619)">
		<path class="st20" d="M-45.2,10.8V17"/>
	</g>
	<g transform="translate(274.5766,118.7619)">
		<path class="st21" d="M-45.2,10.8V17"/>
	</g>
	<g>
		<path class="st17" d="M200.1,125.4v-9.7h15.7v9.7H200.1z"/>
	</g>
	<g>
		<path class="st18" d="M200.1,125.4h15.7v-9.7h-15.7V125.4z"/>
		<line class="st19" x1="215.8" y1="120.5" x2="207" y2="120.5"/>
		<line class="st19" x1="215.8" y1="120.5" x2="242.6" y2="120.5"/>
	</g>
	<g transform="translate(252.6233,106.8095)">
		<path class="st20" d="M-45.6,10.6v6.1"/>
	</g>
	<g transform="translate(252.6233,106.8095)">
		<path class="st21" d="M-45.6,10.6v6.1"/>
	</g>
	<g transform="translate(287.5376,106.8095)">
		<path class="st20" d="M-44.9,10.6v6.1"/>
	</g>
	<g transform="translate(287.5376,106.8095)">
		<path class="st21" d="M-44.9,10.6v6.1"/>
	</g>
	<g>
		<path class="st17" d="M200.1,113.2v-9.7h3.7v9.7H200.1z"/>
	</g>
	<g>
		<path class="st18" d="M200.1,113.2h3.7v-9.7h-3.7V113.2z"/>
		<line class="st19" x1="203.8" y1="108.3" x2="199" y2="108.3"/>
		<line class="st19" x1="203.8" y1="108.3" x2="220" y2="108.3"/>
	</g>
	<g transform="translate(244.7493,94.8571)">
		<path class="st20" d="M-45.7,10.4v6.1"/>
	</g>
	<g transform="translate(244.7493,94.8571)">
		<path class="st21" d="M-45.7,10.4v6.1"/>
	</g>
	<g transform="translate(265.3371,94.8571)">
		<path class="st20" d="M-45.4,10.4v6.1"/>
	</g>
	<g transform="translate(265.3371,94.8571)">
		<path class="st21" d="M-45.4,10.4v6.1"/>
	</g>
	<g>
		<path class="st17" d="M200.1,101v-9.7h1.6v9.7H200.1z"/>
	</g>
	<g>
		<path class="st18" d="M200.1,101h1.6v-9.7h-1.6V101z"/>
		<line class="st19" x1="201.7" y1="96.1" x2="197.8" y2="96.1"/>
		<line class="st19" x1="201.7" y1="96.1" x2="206.8" y2="96.1"/>
	</g>
	<g transform="translate(243.5589,82.9048)">
		<path class="st20" d="M-45.8,10.2v6.1"/>
	</g>
	<g transform="translate(243.5589,82.9048)">
		<path class="st21" d="M-45.8,10.2v6.1"/>
	</g>
	<g transform="translate(252.4288,82.9048)">
		<path class="st20" d="M-45.6,10.2v6.1"/>
	</g>
	<g transform="translate(252.4288,82.9048)">
		<path class="st21" d="M-45.6,10.2v6.1"/>
	</g>
	<g>
		<path class="st22" d="M200.1,88.8v-9.7l0,0V88.8z"/>
	</g>
	<g>
		<path class="st23" d="M200.1,88.8L200.1,88.8v-9.7l0,0V88.8z"/>
		<line class="st24" x1="200.1" y1="84" x2="200.1" y2="84"/>
		<line class="st24" x1="200.1" y1="84" x2="200.1" y2="84"/>
	</g>
	<g transform="translate(245.8462,70.9524)">
		<path class="st25" d="M-45.7,9.9v6.1"/>
	</g>
	<g transform="translate(245.8462,70.9524)">
		<path class="st26" d="M-45.7,9.9v6.1"/>
	</g>
	<g transform="translate(245.8462,70.9524)">
		<path class="st25" d="M-45.7,9.9v6.1"/>
	</g>
	<g transform="translate(245.8462,70.9524)">
		<path class="st26" d="M-45.7,9.9v6.1"/>
	</g>
	<g>
		<line class="st27" x1="39.3" y1="327.5" x2="271.6" y2="327.5"/>
		<line class="st27" x1="39.3" y1="71.8" x2="271.6" y2="71.8"/>
		<line class="st27" x1="66.1" y1="327.5" x2="66.1" y2="324.9"/>
		<line class="st27" x1="110.8" y1="327.5" x2="110.8" y2="324.9"/>
		<line class="st27" x1="155.5" y1="327.5" x2="155.5" y2="324.9"/>
		<line class="st27" x1="200.1" y1="327.5" x2="200.1" y2="324.9"/>
		<line class="st27" x1="244.8" y1="327.5" x2="244.8" y2="324.9"/>
		<line class="st27" x1="66.1" y1="71.8" x2="66.1" y2="74.3"/>
		<line class="st27" x1="110.8" y1="71.8" x2="110.8" y2="74.3"/>
		<line class="st27" x1="155.5" y1="71.8" x2="155.5" y2="74.3"/>
		<line class="st27" x1="200.1" y1="71.8" x2="200.1" y2="74.3"/>
		<line class="st27" x1="244.8" y1="71.8" x2="244.8" y2="74.3"/>
	</g>
	<g>
		<path class="st0" d="M295.3,327.5h231.2V71.8H295.3V327.5z"/>
	</g>
	<g>
		<line class="st1" x1="515.5" y1="327.5" x2="515.5" y2="71.8"/>
	</g>
	<g>
		<path class="st2" d="M515.5,320.2v-9.7h-50.6v9.7H515.5z"/>
	</g>
	<g>
		<path class="st3" d="M515.5,320.2h-50.6v-9.7h50.6V320.2z"/>
		<line class="st4" x1="464.8" y1="315.3" x2="399" y2="315.3"/>
		<line class="st4" x1="464.8" y1="315.3" x2="499.7" y2="315.3"/>
	</g>
	<g transform="translate(489.8784,298.0476)">
		<path class="st5" d="M-90.8,14.2v6.1"/>
	</g>
	<g transform="translate(489.8784,298.0476)">
		<path class="st6" d="M-90.8,14.2v6.1"/>
	</g>
	<g transform="translate(588.6693,298.0476)">
		<path class="st5" d="M-89,14.2v6.1"/>
	</g>
	<g transform="translate(588.6693,298.0476)">
		<path class="st6" d="M-89,14.2v6.1"/>
	</g>
	<g>
		<path class="st2" d="M515.5,308v-9.7h-77.3v9.7H515.5z"/>
	</g>
	<g>
		<path class="st3" d="M515.5,308h-77.3v-9.7h77.3V308z"/>
		<line class="st4" x1="438.2" y1="303.1" x2="349.6" y2="303.1"/>
		<line class="st4" x1="438.2" y1="303.1" x2="498.8" y2="303.1"/>
	</g>
	<g transform="translate(441.3413,286.0952)">
		<path class="st5" d="M-91.7,14v6.1"/>
	</g>
	<g transform="translate(441.3413,286.0952)">
		<path class="st6" d="M-91.7,14v6.1"/>
	</g>
	<g transform="translate(587.7877,286.0952)">
		<path class="st5" d="M-89,14v6.1"/>
	</g>
	<g transform="translate(587.7877,286.0952)">
		<path class="st6" d="M-89,14v6.1"/>
	</g>
	<g>
		<path class="st2" d="M515.5,295.8v-9.7h-95v9.7H515.5z"/>
	</g>
	<g>
		<path class="st3" d="M515.5,295.8h-95v-9.7h95V295.8z"/>
		<line class="st4" x1="420.5" y1="290.9" x2="307.7" y2="290.9"/>
		<line class="st4" x1="420.5" y1="290.9" x2="499.3" y2="290.9"/>
	</g>
	<g transform="translate(400.2516,274.1429)">
		<path class="st5" d="M-92.5,13.7v6.1"/>
	</g>
	<g transform="translate(400.2516,274.1429)">
		<path class="st6" d="M-92.5,13.7v6.1"/>
	</g>
	<g transform="translate(588.3206,274.1429)">
		<path class="st5" d="M-89,13.7v6.1"/>
	</g>
	<g transform="translate(588.3206,274.1429)">
		<path class="st6" d="M-89,13.7v6.1"/>
	</g>
	<g>
		<path class="st2" d="M515.5,283.6v-9.7h-92.1v9.7H515.5z"/>
	</g>
	<g>
		<path class="st3" d="M515.5,283.6h-92.1v-9.7h92.1V283.6z"/>
		<line class="st4" x1="423.4" y1="278.8" x2="310.2" y2="278.8"/>
		<line class="st4" x1="423.4" y1="278.8" x2="499.9" y2="278.8"/>
	</g>
	<g transform="translate(402.694,262.1905)">
		<path class="st5" d="M-92.5,13.5v6.1"/>
	</g>
	<g transform="translate(402.694,262.1905)">
		<path class="st6" d="M-92.5,13.5v6.1"/>
	</g>
	<g transform="translate(588.9098,262.1905)">
		<path class="st5" d="M-89,13.5v6.1"/>
	</g>
	<g transform="translate(588.9098,262.1905)">
		<path class="st6" d="M-89,13.5v6.1"/>
	</g>
	<g>
		<path class="st2" d="M515.5,271.5v-9.7h-95.4v9.7H515.5z"/>
	</g>
	<g>
		<path class="st3" d="M515.5,271.5h-95.4v-9.7h95.4V271.5z"/>
		<line class="st4" x1="420.1" y1="266.6" x2="305.7" y2="266.6"/>
		<line class="st4" x1="420.1" y1="266.6" x2="496.3" y2="266.6"/>
	</g>
	<g transform="translate(398.2339,250.2381)">
		<path class="st5" d="M-92.6,13.3v6.1"/>
	</g>
	<g transform="translate(398.2339,250.2381)">
		<path class="st6" d="M-92.6,13.3v6.1"/>
	</g>
	<g transform="translate(585.3589,250.2381)">
		<path class="st5" d="M-89.1,13.3v6.1"/>
	</g>
	<g transform="translate(585.3589,250.2381)">
		<path class="st6" d="M-89.1,13.3v6.1"/>
	</g>
	<g>
		<path class="st2" d="M515.5,259.3v-9.7h-77.7v9.7H515.5z"/>
	</g>
	<g>
		<path class="st3" d="M515.5,259.3h-77.7v-9.7h77.7V259.3z"/>
		<line class="st4" x1="437.8" y1="254.4" x2="344.5" y2="254.4"/>
		<line class="st4" x1="437.8" y1="254.4" x2="501.7" y2="254.4"/>
	</g>
	<g transform="translate(436.3698,238.2857)">
		<path class="st5" d="M-91.8,13.1v6.1"/>
	</g>
	<g transform="translate(436.3698,238.2857)">
		<path class="st6" d="M-91.8,13.1v6.1"/>
	</g>
	<g transform="translate(590.6555,238.2857)">
		<path class="st5" d="M-89,13.1v6.1"/>
	</g>
	<g transform="translate(590.6555,238.2857)">
		<path class="st6" d="M-89,13.1v6.1"/>
	</g>
	<g>
		<path class="st7" d="M515.5,247.1v-9.7h-8.1v9.7H515.5z"/>
	</g>
	<g>
		<path class="st8" d="M515.5,247.1h-8.1v-9.7h8.1V247.1z"/>
		<line class="st9" x1="507.4" y1="242.2" x2="496.5" y2="242.2"/>
		<line class="st9" x1="507.4" y1="242.2" x2="513.1" y2="242.2"/>
	</g>
	<g transform="translate(585.533,226.3333)">
		<path class="st10" d="M-89.1,12.9V19"/>
	</g>
	<g transform="translate(585.533,226.3333)">
		<path class="st11" d="M-89.1,12.9V19"/>
	</g>
	<g transform="translate(601.8115,226.3333)">
		<path class="st10" d="M-88.7,12.9V19"/>
	</g>
	<g transform="translate(601.8115,226.3333)">
		<path class="st11" d="M-88.7,12.9V19"/>
	</g>
	<g>
		<path class="st7" d="M515.5,234.9v-9.7h-2.1v9.7H515.5z"/>
	</g>
	<g>
		<path class="st8" d="M515.5,234.9h-2.1v-9.7h2.1V234.9z"/>
		<line class="st9" x1="513.4" y1="230.1" x2="507.9" y2="230.1"/>
		<line class="st9" x1="513.4" y1="230.1" x2="513.6" y2="230.1"/>
	</g>
	<g transform="translate(596.6964,214.381)">
		<path class="st10" d="M-88.8,12.6v6.1"/>
	</g>
	<g transform="translate(596.6964,214.381)">
		<path class="st11" d="M-88.8,12.6v6.1"/>
	</g>
	<g transform="translate(602.3467,214.381)">
		<path class="st10" d="M-88.7,12.6v6.1"/>
	</g>
	<g transform="translate(602.3467,214.381)">
		<path class="st11" d="M-88.7,12.6v6.1"/>
	</g>
	<g>
		<path class="st7" d="M515.5,222.8V213h-18.9v9.7H515.5z"/>
	</g>
	<g>
		<path class="st8" d="M515.5,222.8h-18.9V213h18.9V222.8z"/>
		<line class="st9" x1="496.6" y1="217.9" x2="473.5" y2="217.9"/>
		<line class="st9" x1="496.6" y1="217.9" x2="512.2" y2="217.9"/>
	</g>
	<g transform="translate(562.9557,202.4286)">
		<path class="st10" d="M-89.5,12.4v6.1"/>
	</g>
	<g transform="translate(562.9557,202.4286)">
		<path class="st11" d="M-89.5,12.4v6.1"/>
	</g>
	<g transform="translate(600.9797,202.4286)">
		<path class="st10" d="M-88.8,12.4v6.1"/>
	</g>
	<g transform="translate(600.9797,202.4286)">
		<path class="st11" d="M-88.8,12.4v6.1"/>
	</g>
	<g>
		<path class="st7" d="M515.5,210.6v-9.7h-11.6v9.7H515.5z"/>
	</g>
	<g>
		<path class="st8" d="M515.5,210.6h-11.6v-9.7h11.6V210.6z"/>
		<line class="st9" x1="503.9" y1="205.7" x2="481.8" y2="205.7"/>
		<line class="st9" x1="503.9" y1="205.7" x2="507.1" y2="205.7"/>
	</g>
	<g transform="translate(571.1052,190.4762)">
		<path class="st10" d="M-89.3,12.2v6.1"/>
	</g>
	<g transform="translate(571.1052,190.4762)">
		<path class="st11" d="M-89.3,12.2v6.1"/>
	</g>
	<g transform="translate(595.928,190.4762)">
		<path class="st10" d="M-88.9,12.2v6.1"/>
	</g>
	<g transform="translate(595.928,190.4762)">
		<path class="st11" d="M-88.9,12.2v6.1"/>
	</g>
	<g>
		<path class="st7" d="M515.5,198.4v-9.7h-6.6v9.7H515.5z"/>
	</g>
	<g>
		<path class="st8" d="M515.5,198.4h-6.6v-9.7h6.6V198.4z"/>
		<line class="st9" x1="508.9" y1="193.5" x2="498.8" y2="193.5"/>
		<line class="st9" x1="508.9" y1="193.5" x2="511.1" y2="193.5"/>
	</g>
	<g transform="translate(587.8294,178.5238)">
		<path class="st10" d="M-89,12v6.1"/>
	</g>
	<g transform="translate(587.8294,178.5238)">
		<path class="st11" d="M-89,12v6.1"/>
	</g>
	<g transform="translate(599.8668,178.5238)">
		<path class="st10" d="M-88.8,12v6.1"/>
	</g>
	<g transform="translate(599.8668,178.5238)">
		<path class="st11" d="M-88.8,12v6.1"/>
	</g>
	<g>
		<path class="st7" d="M515.5,186.2v-9.7H510v9.7H515.5z"/>
	</g>
	<g>
		<path class="st8" d="M515.5,186.2H510v-9.7h5.4V186.2z"/>
		<line class="st9" x1="510" y1="181.4" x2="501.4" y2="181.4"/>
		<line class="st9" x1="510" y1="181.4" x2="512" y2="181.4"/>
	</g>
	<g transform="translate(590.4007,166.5714)">
		<path class="st10" d="M-89,11.7v6.1"/>
	</g>
	<g transform="translate(590.4007,166.5714)">
		<path class="st11" d="M-89,11.7v6.1"/>
	</g>
	<g transform="translate(600.7405,166.5714)">
		<path class="st10" d="M-88.8,11.7v6.1"/>
	</g>
	<g transform="translate(600.7405,166.5714)">
		<path class="st11" d="M-88.8,11.7v6.1"/>
	</g>
	<g>
		<path class="st7" d="M515.5,174.1v-9.7l0,0V174.1z"/>
	</g>
	<g>
		<path class="st8" d="M515.5,174.1L515.5,174.1v-9.7l0,0V174.1z"/>
		<line class="st9" x1="515.5" y1="169.2" x2="515.5" y2="169.2"/>
		<line class="st9" x1="515.5" y1="169.2" x2="515.5" y2="169.2"/>
	</g>
	<g transform="translate(604.1905,154.619)">
		<path class="st10" d="M-88.7,11.5v6.1"/>
	</g>
	<g transform="translate(604.1905,154.619)">
		<path class="st11" d="M-88.7,11.5v6.1"/>
	</g>
	<g transform="translate(604.1905,154.619)">
		<path class="st10" d="M-88.7,11.5v6.1"/>
	</g>
	<g transform="translate(604.1905,154.619)">
		<path class="st11" d="M-88.7,11.5v6.1"/>
	</g>
	<g>
		<path class="st12" d="M515.5,161.9v-9.7h-3v9.7H515.5z"/>
	</g>
	<g>
		<path class="st13" d="M515.5,161.9h-3v-9.7h3V161.9z"/>
		<line class="st14" x1="512.5" y1="157" x2="501.5" y2="157"/>
		<line class="st14" x1="512.5" y1="157" x2="521.3" y2="157"/>
	</g>
	<g transform="translate(590.5015,142.6667)">
		<path class="st15" d="M-89,11.3v6.1"/>
	</g>
	<g transform="translate(590.5015,142.6667)">
		<path class="st16" d="M-89,11.3v6.1"/>
	</g>
	<g transform="translate(609.9176,142.6667)">
		<path class="st15" d="M-88.6,11.3v6.1"/>
	</g>
	<g transform="translate(609.9176,142.6667)">
		<path class="st16" d="M-88.6,11.3v6.1"/>
	</g>
	<g>
		<path class="st12" d="M515.5,149.7V140h-2.6v9.7H515.5z"/>
	</g>
	<g>
		<path class="st13" d="M515.5,149.7h-2.6V140h2.6V149.7z"/>
		<line class="st14" x1="512.9" y1="144.8" x2="502.3" y2="144.8"/>
		<line class="st14" x1="512.9" y1="144.8" x2="522.1" y2="144.8"/>
	</g>
	<g transform="translate(591.226,130.7143)">
		<path class="st15" d="M-88.9,11.1v6.1"/>
	</g>
	<g transform="translate(591.226,130.7143)">
		<path class="st16" d="M-88.9,11.1v6.1"/>
	</g>
	<g transform="translate(610.6984,130.7143)">
		<path class="st15" d="M-88.6,11.1v6.1"/>
	</g>
	<g transform="translate(610.6984,130.7143)">
		<path class="st16" d="M-88.6,11.1v6.1"/>
	</g>
	<g>
		<path class="st17" d="M515.5,137.5v-9.7h-6.3v9.7H515.5z"/>
	</g>
	<g>
		<path class="st18" d="M515.5,137.5h-6.3v-9.7h6.3V137.5z"/>
		<line class="st19" x1="509.2" y1="132.7" x2="487" y2="132.7"/>
		<line class="st19" x1="509.2" y1="132.7" x2="510.9" y2="132.7"/>
	</g>
	<g transform="translate(576.2495,118.7619)">
		<path class="st20" d="M-89.2,10.8V17"/>
	</g>
	<g transform="translate(576.2495,118.7619)">
		<path class="st21" d="M-89.2,10.8V17"/>
	</g>
	<g transform="translate(599.7254,118.7619)">
		<path class="st20" d="M-88.8,10.8V17"/>
	</g>
	<g transform="translate(599.7254,118.7619)">
		<path class="st21" d="M-88.8,10.8V17"/>
	</g>
	<g>
		<path class="st17" d="M515.5,125.4v-9.7h-0.4v9.7H515.5z"/>
	</g>
	<g>
		<path class="st18" d="M515.5,125.4h-0.4v-9.7h0.4V125.4z"/>
		<line class="st19" x1="515.1" y1="120.5" x2="505" y2="120.5"/>
		<line class="st19" x1="515.1" y1="120.5" x2="517.6" y2="120.5"/>
	</g>
	<g transform="translate(593.8926,106.8095)">
		<path class="st20" d="M-88.9,10.6v6.1"/>
	</g>
	<g transform="translate(593.8926,106.8095)">
		<path class="st21" d="M-88.9,10.6v6.1"/>
	</g>
	<g transform="translate(606.2311,106.8095)">
		<path class="st20" d="M-88.7,10.6v6.1"/>
	</g>
	<g transform="translate(606.2311,106.8095)">
		<path class="st21" d="M-88.7,10.6v6.1"/>
	</g>
	<g>
		<path class="st17" d="M515.5,113.2v-9.7h-15.2v9.7H515.5z"/>
	</g>
	<g>
		<path class="st18" d="M515.5,113.2h-15.2v-9.7h15.2V113.2z"/>
		<line class="st19" x1="500.3" y1="108.3" x2="479.6" y2="108.3"/>
		<line class="st19" x1="500.3" y1="108.3" x2="511.7" y2="108.3"/>
	</g>
	<g transform="translate(568.9794,94.8571)">
		<path class="st20" d="M-89.4,10.4v6.1"/>
	</g>
	<g transform="translate(568.9794,94.8571)">
		<path class="st21" d="M-89.4,10.4v6.1"/>
	</g>
	<g transform="translate(600.423,94.8571)">
		<path class="st20" d="M-88.8,10.4v6.1"/>
	</g>
	<g transform="translate(600.423,94.8571)">
		<path class="st21" d="M-88.8,10.4v6.1"/>
	</g>
	<g>
		<path class="st17" d="M515.5,101v-9.7h-17.8v9.7H515.5z"/>
	</g>
	<g>
		<path class="st18" d="M515.5,101h-17.8v-9.7h17.8V101z"/>
		<line class="st19" x1="497.7" y1="96.1" x2="454.9" y2="96.1"/>
		<line class="st19" x1="497.7" y1="96.1" x2="507.6" y2="96.1"/>
	</g>
	<g transform="translate(544.7224,82.9048)">
		<path class="st20" d="M-89.8,10.2v6.1"/>
	</g>
	<g transform="translate(544.7224,82.9048)">
		<path class="st21" d="M-89.8,10.2v6.1"/>
	</g>
	<g transform="translate(596.4199,82.9048)">
		<path class="st20" d="M-88.8,10.2v6.1"/>
	</g>
	<g transform="translate(596.4199,82.9048)">
		<path class="st21" d="M-88.8,10.2v6.1"/>
	</g>
	<g>
		<path class="st22" d="M515.5,88.8v-9.7h-19.7v9.7H515.5z"/>
	</g>
	<g>
		<path class="st23" d="M515.5,88.8h-19.7v-9.7h19.7V88.8z"/>
		<line class="st24" x1="495.7" y1="84" x2="453.2" y2="84"/>
		<line class="st24" x1="495.7" y1="84" x2="504.1" y2="84"/>
	</g>
	<g transform="translate(543.0791,70.9524)">
		<path class="st25" d="M-89.8,9.9v6.1"/>
	</g>
	<g transform="translate(543.0791,70.9524)">
		<path class="st26" d="M-89.8,9.9v6.1"/>
	</g>
	<g transform="translate(592.9922,70.9524)">
		<path class="st25" d="M-88.9,9.9v6.1"/>
	</g>
	<g transform="translate(592.9922,70.9524)">
		<path class="st26" d="M-88.9,9.9v6.1"/>
	</g>
	<g>
		<line class="st27" x1="295.3" y1="327.5" x2="526.5" y2="327.5"/>
		<line class="st27" x1="295.3" y1="71.8" x2="526.5" y2="71.8"/>
		<line class="st27" x1="295.3" y1="327.5" x2="295.3" y2="324.9"/>
		<line class="st27" x1="405.4" y1="327.5" x2="405.4" y2="324.9"/>
		<line class="st27" x1="515.5" y1="327.5" x2="515.5" y2="324.9"/>
		<line class="st27" x1="295.3" y1="71.8" x2="295.3" y2="74.3"/>
		<line class="st27" x1="405.4" y1="71.8" x2="405.4" y2="74.3"/>
		<line class="st27" x1="515.5" y1="71.8" x2="515.5" y2="74.3"/>
	</g>
	<g>
		<path class="st0" d="M39.3,686h232.3V431.4H39.3V686z"/>
	</g>
	<g>
		<line class="st1" x1="200.1" y1="686" x2="200.1" y2="431.4"/>
	</g>
	<g>
		<path class="st2" d="M200.1,678.8v-9.7h-26.6v9.7H200.1z"/>
	</g>
	<g>
		<path class="st3" d="M200.1,678.8h-26.6v-9.7h26.6V678.8z"/>
		<line class="st4" x1="173.6" y1="673.9" x2="127.5" y2="673.9"/>
		<line class="st4" x1="173.6" y1="673.9" x2="182.7" y2="673.9"/>
	</g>
	<g transform="translate(174.5402,650.0952)">
		<path class="st5" d="M-47,20.8v6.1"/>
	</g>
	<g transform="translate(174.5402,650.0952)">
		<path class="st6" d="M-47,20.8v6.1"/>
	</g>
	<g transform="translate(228.7074,650.0952)">
		<path class="st5" d="M-46,20.8v6.1"/>
	</g>
	<g transform="translate(228.7074,650.0952)">
		<path class="st6" d="M-46,20.8v6.1"/>
	</g>
	<g>
		<path class="st2" d="M200.1,666.6v-9.7H152v9.7H200.1z"/>
	</g>
	<g>
		<path class="st3" d="M200.1,666.6H152v-9.7h48.2V666.6z"/>
		<line class="st4" x1="152" y1="661.8" x2="89.7" y2="661.8"/>
		<line class="st4" x1="152" y1="661.8" x2="183.6" y2="661.8"/>
	</g>
	<g transform="translate(137.4176,638.1905)">
		<path class="st5" d="M-47.7,20.5v6.1"/>
	</g>
	<g transform="translate(137.4176,638.1905)">
		<path class="st6" d="M-47.7,20.5v6.1"/>
	</g>
	<g transform="translate(229.5725,638.1905)">
		<path class="st5" d="M-46,20.5v6.1"/>
	</g>
	<g transform="translate(229.5725,638.1905)">
		<path class="st6" d="M-46,20.5v6.1"/>
	</g>
	<g>
		<path class="st2" d="M200.1,654.5v-9.7h-62.5v9.7H200.1z"/>
	</g>
	<g>
		<path class="st3" d="M200.1,654.5h-62.5v-9.7h62.5V654.5z"/>
		<line class="st4" x1="137.6" y1="649.7" x2="57" y2="649.7"/>
		<line class="st4" x1="137.6" y1="649.7" x2="180.9" y2="649.7"/>
	</g>
	<g transform="translate(105.3173,626.2857)">
		<path class="st5" d="M-48.3,20.3v6.1"/>
	</g>
	<g transform="translate(105.3173,626.2857)">
		<path class="st6" d="M-48.3,20.3v6.1"/>
	</g>
	<g transform="translate(226.9591,626.2857)">
		<path class="st5" d="M-46.1,20.3v6.1"/>
	</g>
	<g transform="translate(226.9591,626.2857)">
		<path class="st6" d="M-46.1,20.3v6.1"/>
	</g>
	<g>
		<path class="st2" d="M200.1,642.4v-9.7h-60.2v9.7H200.1z"/>
	</g>
	<g>
		<path class="st3" d="M200.1,642.4h-60.2v-9.7h60.2V642.4z"/>
		<line class="st4" x1="139.9" y1="637.5" x2="59.8" y2="637.5"/>
		<line class="st4" x1="139.9" y1="637.5" x2="176.6" y2="637.5"/>
	</g>
	<g transform="translate(108.136,614.381)">
		<path class="st5" d="M-48.3,20.1v6.1"/>
	</g>
	<g transform="translate(108.136,614.381)">
		<path class="st6" d="M-48.3,20.1v6.1"/>
	</g>
	<g transform="translate(222.7276,614.381)">
		<path class="st5" d="M-46.1,20.1v6.1"/>
	</g>
	<g transform="translate(222.7276,614.381)">
		<path class="st6" d="M-46.1,20.1v6.1"/>
	</g>
	<g>
		<path class="st2" d="M200.1,630.3v-9.7h-62.8v9.7H200.1z"/>
	</g>
	<g>
		<path class="st3" d="M200.1,630.3h-62.8v-9.7h62.8V630.3z"/>
		<line class="st4" x1="137.3" y1="625.4" x2="59.4" y2="625.4"/>
		<line class="st4" x1="137.3" y1="625.4" x2="185.4" y2="625.4"/>
	</g>
	<g transform="translate(107.6811,602.4762)">
		<path class="st5" d="M-48.3,19.9V26"/>
	</g>
	<g transform="translate(107.6811,602.4762)">
		<path class="st6" d="M-48.3,19.9V26"/>
	</g>
	<g transform="translate(231.4077,602.4762)">
		<path class="st5" d="M-46,19.9V26"/>
	</g>
	<g transform="translate(231.4077,602.4762)">
		<path class="st6" d="M-46,19.9V26"/>
	</g>
	<g>
		<path class="st2" d="M200.1,618.1v-9.7h-50v9.7H200.1z"/>
	</g>
	<g>
		<path class="st3" d="M200.1,618.1h-50v-9.7h50V618.1z"/>
		<line class="st4" x1="150.1" y1="613.3" x2="83.8" y2="613.3"/>
		<line class="st4" x1="150.1" y1="613.3" x2="178.7" y2="613.3"/>
	</g>
	<g transform="translate(131.6813,590.5714)">
		<path class="st5" d="M-47.9,19.7v6.1"/>
	</g>
	<g transform="translate(131.6813,590.5714)">
		<path class="st6" d="M-47.9,19.7v6.1"/>
	</g>
	<g transform="translate(224.825,590.5714)">
		<path class="st5" d="M-46.1,19.7v6.1"/>
	</g>
	<g transform="translate(224.825,590.5714)">
		<path class="st6" d="M-46.1,19.7v6.1"/>
	</g>
	<g>
		<path class="st7" d="M200.1,606v-9.7h8v9.7H200.1z"/>
	</g>
	<g>
		<path class="st8" d="M200.1,606h8v-9.7h-8V606z"/>
		<line class="st9" x1="208.1" y1="601.2" x2="206.7" y2="601.2"/>
		<line class="st9" x1="208.1" y1="601.2" x2="235.4" y2="601.2"/>
	</g>
	<g transform="translate(252.3304,578.6667)">
		<path class="st10" d="M-45.6,19.4v6.1"/>
	</g>
	<g transform="translate(252.3304,578.6667)">
		<path class="st11" d="M-45.6,19.4v6.1"/>
	</g>
	<g transform="translate(280.4473,578.6667)">
		<path class="st10" d="M-45.1,19.4v6.1"/>
	</g>
	<g transform="translate(280.4473,578.6667)">
		<path class="st11" d="M-45.1,19.4v6.1"/>
	</g>
	<g>
		<path class="st7" d="M200.1,593.9v-9.7H213v9.7H200.1z"/>
	</g>
	<g>
		<path class="st8" d="M200.1,593.9H213v-9.7h-12.8V593.9z"/>
		<line class="st9" x1="213" y1="589" x2="207.5" y2="589"/>
		<line class="st9" x1="213" y1="589" x2="240.5" y2="589"/>
	</g>
	<g transform="translate(253.0563,566.7619)">
		<path class="st10" d="M-45.6,19.2v6.1"/>
	</g>
	<g transform="translate(253.0563,566.7619)">
		<path class="st11" d="M-45.6,19.2v6.1"/>
	</g>
	<g transform="translate(285.4308,566.7619)">
		<path class="st10" d="M-45,19.2v6.1"/>
	</g>
	<g transform="translate(285.4308,566.7619)">
		<path class="st11" d="M-45,19.2v6.1"/>
	</g>
	<g>
		<path class="st7" d="M200.1,581.8v-9.7h-0.8v9.7H200.1z"/>
	</g>
	<g>
		<path class="st8" d="M200.1,581.8h-0.8v-9.7h0.8V581.8z"/>
		<line class="st9" x1="199.3" y1="576.9" x2="188.4" y2="576.9"/>
		<line class="st9" x1="199.3" y1="576.9" x2="215.8" y2="576.9"/>
	</g>
	<g transform="translate(234.2888,554.8571)">
		<path class="st10" d="M-45.9,19v6.1"/>
	</g>
	<g transform="translate(234.2888,554.8571)">
		<path class="st11" d="M-45.9,19v6.1"/>
	</g>
	<g transform="translate(261.2779,554.8571)">
		<path class="st10" d="M-45.4,19v6.1"/>
	</g>
	<g transform="translate(261.2779,554.8571)">
		<path class="st11" d="M-45.4,19v6.1"/>
	</g>
	<g>
		<path class="st7" d="M200.1,569.6v-9.7h5.1v9.7H200.1z"/>
	</g>
	<g>
		<path class="st8" d="M200.1,569.6h5.1v-9.7h-5.1V569.6z"/>
		<line class="st9" x1="205.2" y1="564.8" x2="203.1" y2="564.8"/>
		<line class="st9" x1="205.2" y1="564.8" x2="218.8" y2="564.8"/>
	</g>
	<g transform="translate(248.7659,542.9524)">
		<path class="st10" d="M-45.7,18.8v6.1"/>
	</g>
	<g transform="translate(248.7659,542.9524)">
		<path class="st11" d="M-45.7,18.8v6.1"/>
	</g>
	<g transform="translate(264.1863,542.9524)">
		<path class="st10" d="M-45.4,18.8v6.1"/>
	</g>
	<g transform="translate(264.1863,542.9524)">
		<path class="st11" d="M-45.4,18.8v6.1"/>
	</g>
	<g>
		<path class="st7" d="M200.1,557.5v-9.7h9.1v9.7H200.1z"/>
	</g>
	<g>
		<path class="st8" d="M200.1,557.5h9.1v-9.7h-9.1V557.5z"/>
		<line class="st9" x1="209.3" y1="552.6" x2="208.2" y2="552.6"/>
		<line class="st9" x1="209.3" y1="552.6" x2="240.5" y2="552.6"/>
	</g>
	<g transform="translate(253.7308,531.0476)">
		<path class="st10" d="M-45.6,18.5v6.1"/>
	</g>
	<g transform="translate(253.7308,531.0476)">
		<path class="st11" d="M-45.6,18.5v6.1"/>
	</g>
	<g transform="translate(285.4395,531.0476)">
		<path class="st10" d="M-45,18.5v6.1"/>
	</g>
	<g transform="translate(285.4395,531.0476)">
		<path class="st11" d="M-45,18.5v6.1"/>
	</g>
	<g>
		<path class="st7" d="M200.1,545.4v-9.7h10.1v9.7H200.1z"/>
	</g>
	<g>
		<path class="st8" d="M200.1,545.4h10.1v-9.7h-10.1V545.4z"/>
		<line class="st9" x1="210.2" y1="540.5" x2="210.1" y2="540.5"/>
		<line class="st9" x1="210.2" y1="540.5" x2="241.6" y2="540.5"/>
	</g>
	<g transform="translate(255.6112,519.1429)">
		<path class="st10" d="M-45.5,18.3v6.1"/>
	</g>
	<g transform="translate(255.6112,519.1429)">
		<path class="st11" d="M-45.5,18.3v6.1"/>
	</g>
	<g transform="translate(286.589,519.1429)">
		<path class="st10" d="M-45,18.3v6.1"/>
	</g>
	<g transform="translate(286.589,519.1429)">
		<path class="st11" d="M-45,18.3v6.1"/>
	</g>
	<g>
		<path class="st7" d="M200.1,533.2v-9.7h14.5v9.7H200.1z"/>
	</g>
	<g>
		<path class="st8" d="M200.1,533.2h14.5v-9.7h-14.5V533.2z"/>
		<line class="st9" x1="214.6" y1="528.4" x2="208.5" y2="528.4"/>
		<line class="st9" x1="214.6" y1="528.4" x2="247.4" y2="528.4"/>
	</g>
	<g transform="translate(254.062,507.2381)">
		<path class="st10" d="M-45.6,18.1v6.1"/>
	</g>
	<g transform="translate(254.062,507.2381)">
		<path class="st11" d="M-45.6,18.1v6.1"/>
	</g>
	<g transform="translate(292.2139,507.2381)">
		<path class="st10" d="M-44.9,18.1v6.1"/>
	</g>
	<g transform="translate(292.2139,507.2381)">
		<path class="st11" d="M-44.9,18.1v6.1"/>
	</g>
	<g>
		<path class="st12" d="M200.1,521.1v-9.7h12.1v9.7H200.1z"/>
	</g>
	<g>
		<path class="st13" d="M200.1,521.1h12.1v-9.7h-12.1V521.1z"/>
		<line class="st14" x1="212.2" y1="516.3" x2="208.2" y2="516.3"/>
		<line class="st14" x1="212.2" y1="516.3" x2="235" y2="516.3"/>
	</g>
	<g transform="translate(253.7978,495.3333)">
		<path class="st15" d="M-45.6,17.9V24"/>
	</g>
	<g transform="translate(253.7978,495.3333)">
		<path class="st16" d="M-45.6,17.9V24"/>
	</g>
	<g transform="translate(280.0976,495.3333)">
		<path class="st15" d="M-45.1,17.9V24"/>
	</g>
	<g transform="translate(280.0976,495.3333)">
		<path class="st16" d="M-45.1,17.9V24"/>
	</g>
	<g>
		<path class="st12" d="M200.1,509v-9.7h12.4v9.7H200.1z"/>
	</g>
	<g>
		<path class="st13" d="M200.1,509h12.4v-9.7h-12.4V509z"/>
		<line class="st14" x1="212.5" y1="504.1" x2="208.2" y2="504.1"/>
		<line class="st14" x1="212.5" y1="504.1" x2="235.7" y2="504.1"/>
	</g>
	<g transform="translate(253.8124,483.4286)">
		<path class="st15" d="M-45.6,17.7v6.1"/>
	</g>
	<g transform="translate(253.8124,483.4286)">
		<path class="st16" d="M-45.6,17.7v6.1"/>
	</g>
	<g transform="translate(280.7328,483.4286)">
		<path class="st15" d="M-45.1,17.7v6.1"/>
	</g>
	<g transform="translate(280.7328,483.4286)">
		<path class="st16" d="M-45.1,17.7v6.1"/>
	</g>
	<g>
		<path class="st17" d="M200.1,496.9v-9.7h9.4v9.7H200.1z"/>
	</g>
	<g>
		<path class="st18" d="M200.1,496.9h9.4v-9.7h-9.4V496.9z"/>
		<line class="st19" x1="209.5" y1="492" x2="207.7" y2="492"/>
		<line class="st19" x1="209.5" y1="492" x2="226.8" y2="492"/>
	</g>
	<g transform="translate(253.2678,471.5238)">
		<path class="st20" d="M-45.6,17.4v6.1"/>
	</g>
	<g transform="translate(253.2678,471.5238)">
		<path class="st21" d="M-45.6,17.4v6.1"/>
	</g>
	<g transform="translate(271.9988,471.5238)">
		<path class="st20" d="M-45.2,17.4v6.1"/>
	</g>
	<g transform="translate(271.9988,471.5238)">
		<path class="st21" d="M-45.2,17.4v6.1"/>
	</g>
	<g>
		<path class="st17" d="M200.1,484.7V475h14.2v9.7H200.1z"/>
	</g>
	<g>
		<path class="st18" d="M200.1,484.7h14.2V475h-14.2V484.7z"/>
		<line class="st19" x1="214.3" y1="479.9" x2="206.9" y2="479.9"/>
		<line class="st19" x1="214.3" y1="479.9" x2="239.8" y2="479.9"/>
	</g>
	<g transform="translate(252.498,459.619)">
		<path class="st20" d="M-45.6,17.2v6.1"/>
	</g>
	<g transform="translate(252.498,459.619)">
		<path class="st21" d="M-45.6,17.2v6.1"/>
	</g>
	<g transform="translate(284.7937,459.619)">
		<path class="st20" d="M-45,17.2v6.1"/>
	</g>
	<g transform="translate(284.7937,459.619)">
		<path class="st21" d="M-45,17.2v6.1"/>
	</g>
	<g>
		<path class="st17" d="M200.1,472.6v-9.7h2.2v9.7H200.1z"/>
	</g>
	<g>
		<path class="st18" d="M200.1,472.6h2.2v-9.7h-2.2V472.6z"/>
		<line class="st19" x1="202.3" y1="467.8" x2="196.5" y2="467.8"/>
		<line class="st19" x1="202.3" y1="467.8" x2="217.6" y2="467.8"/>
	</g>
	<g transform="translate(242.327,447.7143)">
		<path class="st20" d="M-45.8,17v6.1"/>
	</g>
	<g transform="translate(242.327,447.7143)">
		<path class="st21" d="M-45.8,17v6.1"/>
	</g>
	<g transform="translate(263.0429,447.7143)">
		<path class="st20" d="M-45.4,17v6.1"/>
	</g>
	<g transform="translate(263.0429,447.7143)">
		<path class="st21" d="M-45.4,17v6.1"/>
	</g>
	<g>
		<path class="st17" d="M200.1,460.5v-9.7h0.1L200.1,460.5L200.1,460.5z"/>
	</g>
	<g>
		<path class="st18" d="M200.1,460.5L200.1,460.5l0.1-9.7h-0.1V460.5z"/>
		<line class="st19" x1="200.2" y1="455.6" x2="195" y2="455.6"/>
		<line class="st19" x1="200.2" y1="455.6" x2="203.9" y2="455.6"/>
	</g>
	<g transform="translate(240.7853,435.8095)">
		<path class="st20" d="M-45.8,16.8v6.1"/>
	</g>
	<g transform="translate(240.7853,435.8095)">
		<path class="st21" d="M-45.8,16.8v6.1"/>
	</g>
	<g transform="translate(249.5712,435.8095)">
		<path class="st20" d="M-45.6,16.8v6.1"/>
	</g>
	<g transform="translate(249.5712,435.8095)">
		<path class="st21" d="M-45.6,16.8v6.1"/>
	</g>
	<g>
		<path class="st22" d="M200.1,448.4v-9.7l0,0V448.4z"/>
	</g>
	<g>
		<path class="st23" d="M200.1,448.4L200.1,448.4v-9.7l0,0V448.4z"/>
		<line class="st24" x1="200.1" y1="443.5" x2="200.1" y2="443.5"/>
		<line class="st24" x1="200.1" y1="443.5" x2="200.1" y2="443.5"/>
	</g>
	<g transform="translate(245.8462,423.9048)">
		<path class="st25" d="M-45.7,16.5v6.1"/>
	</g>
	<g transform="translate(245.8462,423.9048)">
		<path class="st26" d="M-45.7,16.5v6.1"/>
	</g>
	<g transform="translate(245.8462,423.9048)">
		<path class="st25" d="M-45.7,16.5v6.1"/>
	</g>
	<g transform="translate(245.8462,423.9048)">
		<path class="st26" d="M-45.7,16.5v6.1"/>
	</g>
	<g>
		<line class="st27" x1="39.3" y1="686" x2="271.6" y2="686"/>
		<line class="st27" x1="39.3" y1="431.4" x2="271.6" y2="431.4"/>
		<line class="st27" x1="66.1" y1="686" x2="66.1" y2="683.5"/>
		<line class="st27" x1="110.8" y1="686" x2="110.8" y2="683.5"/>
		<line class="st27" x1="155.5" y1="686" x2="155.5" y2="683.5"/>
		<line class="st27" x1="200.1" y1="686" x2="200.1" y2="683.5"/>
		<line class="st27" x1="244.8" y1="686" x2="244.8" y2="683.5"/>
		<line class="st27" x1="66.1" y1="431.4" x2="66.1" y2="433.9"/>
		<line class="st27" x1="110.8" y1="431.4" x2="110.8" y2="433.9"/>
		<line class="st27" x1="155.5" y1="431.4" x2="155.5" y2="433.9"/>
		<line class="st27" x1="200.1" y1="431.4" x2="200.1" y2="433.9"/>
		<line class="st27" x1="244.8" y1="431.4" x2="244.8" y2="433.9"/>
	</g>
	<g>
		<path class="st0" d="M295.3,686h231.2V431.4H295.3V686z"/>
	</g>
	<g>
		<line class="st1" x1="515.5" y1="686" x2="515.5" y2="431.4"/>
	</g>
	<g>
		<path class="st2" d="M515.5,678.8v-9.7h-50.6v9.7H515.5z"/>
	</g>
	<g>
		<path class="st3" d="M515.5,678.8h-50.6v-9.7h50.6V678.8z"/>
		<line class="st4" x1="464.8" y1="673.9" x2="399" y2="673.9"/>
		<line class="st4" x1="464.8" y1="673.9" x2="499.9" y2="673.9"/>
	</g>
	<g transform="translate(489.823,650.0952)">
		<path class="st5" d="M-90.8,20.8v6.1"/>
	</g>
	<g transform="translate(489.823,650.0952)">
		<path class="st6" d="M-90.8,20.8v6.1"/>
	</g>
	<g transform="translate(588.8796,650.0952)">
		<path class="st5" d="M-89,20.8v6.1"/>
	</g>
	<g transform="translate(588.8796,650.0952)">
		<path class="st6" d="M-89,20.8v6.1"/>
	</g>
	<g>
		<path class="st2" d="M515.5,666.6v-9.7h-77.3v9.7H515.5z"/>
	</g>
	<g>
		<path class="st3" d="M515.5,666.6h-77.3v-9.7h77.3V666.6z"/>
		<line class="st4" x1="438.2" y1="661.8" x2="350.1" y2="661.8"/>
		<line class="st4" x1="438.2" y1="661.8" x2="498.5" y2="661.8"/>
	</g>
	<g transform="translate(441.8818,638.1905)">
		<path class="st5" d="M-91.7,20.5v6.1"/>
	</g>
	<g transform="translate(441.8818,638.1905)">
		<path class="st6" d="M-91.7,20.5v6.1"/>
	</g>
	<g transform="translate(587.4932,638.1905)">
		<path class="st5" d="M-89,20.5v6.1"/>
	</g>
	<g transform="translate(587.4932,638.1905)">
		<path class="st6" d="M-89,20.5v6.1"/>
	</g>
	<g>
		<path class="st2" d="M515.5,654.5v-9.7h-95v9.7H515.5z"/>
	</g>
	<g>
		<path class="st3" d="M515.5,654.5h-95v-9.7h95V654.5z"/>
		<line class="st4" x1="420.5" y1="649.7" x2="308.7" y2="649.7"/>
		<line class="st4" x1="420.5" y1="649.7" x2="499.9" y2="649.7"/>
	</g>
	<g transform="translate(401.181,626.2857)">
		<path class="st5" d="M-92.5,20.3v6.1"/>
	</g>
	<g transform="translate(401.181,626.2857)">
		<path class="st6" d="M-92.5,20.3v6.1"/>
	</g>
	<g transform="translate(588.8419,626.2857)">
		<path class="st5" d="M-89,20.3v6.1"/>
	</g>
	<g transform="translate(588.8419,626.2857)">
		<path class="st6" d="M-89,20.3v6.1"/>
	</g>
	<g>
		<path class="st2" d="M515.5,642.4v-9.7h-92.1v9.7H515.5z"/>
	</g>
	<g>
		<path class="st3" d="M515.5,642.4h-92.1v-9.7h92.1V642.4z"/>
		<line class="st4" x1="423.4" y1="637.5" x2="312.1" y2="637.5"/>
		<line class="st4" x1="423.4" y1="637.5" x2="499.4" y2="637.5"/>
	</g>
	<g transform="translate(404.495,614.381)">
		<path class="st5" d="M-92.4,20.1v6.1"/>
	</g>
	<g transform="translate(404.495,614.381)">
		<path class="st6" d="M-92.4,20.1v6.1"/>
	</g>
	<g transform="translate(588.4398,614.381)">
		<path class="st5" d="M-89,20.1v6.1"/>
	</g>
	<g transform="translate(588.4398,614.381)">
		<path class="st6" d="M-89,20.1v6.1"/>
	</g>
	<g>
		<path class="st2" d="M515.5,630.3v-9.7h-95.4v9.7H515.5z"/>
	</g>
	<g>
		<path class="st3" d="M515.5,630.3h-95.4v-9.7h95.4V630.3z"/>
		<line class="st4" x1="420.1" y1="625.4" x2="305.4" y2="625.4"/>
		<line class="st4" x1="420.1" y1="625.4" x2="496.4" y2="625.4"/>
	</g>
	<g transform="translate(397.9953,602.4762)">
		<path class="st5" d="M-92.6,19.9V26"/>
	</g>
	<g transform="translate(397.9953,602.4762)">
		<path class="st6" d="M-92.6,19.9V26"/>
	</g>
	<g transform="translate(585.4528,602.4762)">
		<path class="st5" d="M-89.1,19.9V26"/>
	</g>
	<g transform="translate(585.4528,602.4762)">
		<path class="st6" d="M-89.1,19.9V26"/>
	</g>
	<g>
		<path class="st2" d="M515.5,618.1v-9.7H436v9.7H515.5z"/>
	</g>
	<g>
		<path class="st3" d="M515.5,618.1H436v-9.7h79.5V618.1z"/>
		<line class="st4" x1="436" y1="613.3" x2="340" y2="613.3"/>
		<line class="st4" x1="436" y1="613.3" x2="503.1" y2="613.3"/>
	</g>
	<g transform="translate(431.9492,590.5714)">
		<path class="st5" d="M-91.9,19.7v6.1"/>
	</g>
	<g transform="translate(431.9492,590.5714)">
		<path class="st6" d="M-91.9,19.7v6.1"/>
	</g>
	<g transform="translate(592.0089,590.5714)">
		<path class="st5" d="M-88.9,19.7v6.1"/>
	</g>
	<g transform="translate(592.0089,590.5714)">
		<path class="st6" d="M-88.9,19.7v6.1"/>
	</g>
	<g>
		<path class="st7" d="M515.5,606v-9.7h-8.1v9.7H515.5z"/>
	</g>
	<g>
		<path class="st8" d="M515.5,606h-8.1v-9.7h8.1V606z"/>
		<line class="st9" x1="507.4" y1="601.2" x2="496.6" y2="601.2"/>
		<line class="st9" x1="507.4" y1="601.2" x2="513.1" y2="601.2"/>
	</g>
	<g transform="translate(585.6451,578.6667)">
		<path class="st10" d="M-89,19.4v6.1"/>
	</g>
	<g transform="translate(585.6451,578.6667)">
		<path class="st11" d="M-89,19.4v6.1"/>
	</g>
	<g transform="translate(601.8435,578.6667)">
		<path class="st10" d="M-88.7,19.4v6.1"/>
	</g>
	<g transform="translate(601.8435,578.6667)">
		<path class="st11" d="M-88.7,19.4v6.1"/>
	</g>
	<g>
		<path class="st7" d="M515.5,593.9v-9.7h-2.1v9.7H515.5z"/>
	</g>
	<g>
		<path class="st8" d="M515.5,593.9h-2.1v-9.7h2.1V593.9z"/>
		<line class="st9" x1="513.4" y1="589" x2="507.8" y2="589"/>
		<line class="st9" x1="513.4" y1="589" x2="513.5" y2="589"/>
	</g>
	<g transform="translate(596.6096,566.7619)">
		<path class="st10" d="M-88.8,19.2v6.1"/>
	</g>
	<g transform="translate(596.6096,566.7619)">
		<path class="st11" d="M-88.8,19.2v6.1"/>
	</g>
	<g transform="translate(602.2394,566.7619)">
		<path class="st10" d="M-88.7,19.2v6.1"/>
	</g>
	<g transform="translate(602.2394,566.7619)">
		<path class="st11" d="M-88.7,19.2v6.1"/>
	</g>
	<g>
		<path class="st7" d="M515.5,581.8v-9.7h-18.9v9.7H515.5z"/>
	</g>
	<g>
		<path class="st8" d="M515.5,581.8h-18.9v-9.7h18.9V581.8z"/>
		<line class="st9" x1="496.6" y1="576.9" x2="473.1" y2="576.9"/>
		<line class="st9" x1="496.6" y1="576.9" x2="512.4" y2="576.9"/>
	</g>
	<g transform="translate(562.6219,554.8571)">
		<path class="st10" d="M-89.5,19v6.1"/>
	</g>
	<g transform="translate(562.6219,554.8571)">
		<path class="st11" d="M-89.5,19v6.1"/>
	</g>
	<g transform="translate(601.1674,554.8571)">
		<path class="st10" d="M-88.8,19v6.1"/>
	</g>
	<g transform="translate(601.1674,554.8571)">
		<path class="st11" d="M-88.8,19v6.1"/>
	</g>
	<g>
		<path class="st7" d="M515.5,569.6v-9.7h-11.6v9.7H515.5z"/>
	</g>
	<g>
		<path class="st8" d="M515.5,569.6h-11.6v-9.7h11.6V569.6z"/>
		<line class="st9" x1="503.9" y1="564.8" x2="482.1" y2="564.8"/>
		<line class="st9" x1="503.9" y1="564.8" x2="507.4" y2="564.8"/>
	</g>
	<g transform="translate(571.3661,542.9524)">
		<path class="st10" d="M-89.3,18.8v6.1"/>
	</g>
	<g transform="translate(571.3661,542.9524)">
		<path class="st11" d="M-89.3,18.8v6.1"/>
	</g>
	<g transform="translate(596.2856,542.9524)">
		<path class="st10" d="M-88.9,18.8v6.1"/>
	</g>
	<g transform="translate(596.2856,542.9524)">
		<path class="st11" d="M-88.9,18.8v6.1"/>
	</g>
	<g>
		<path class="st7" d="M515.5,557.5v-9.7h-6.6v9.7H515.5z"/>
	</g>
	<g>
		<path class="st8" d="M515.5,557.5h-6.6v-9.7h6.6V557.5z"/>
		<line class="st9" x1="508.9" y1="552.6" x2="498.9" y2="552.6"/>
		<line class="st9" x1="508.9" y1="552.6" x2="510.9" y2="552.6"/>
	</g>
	<g transform="translate(587.9183,531.0476)">
		<path class="st10" d="M-89,18.5v6.1"/>
	</g>
	<g transform="translate(587.9183,531.0476)">
		<path class="st11" d="M-89,18.5v6.1"/>
	</g>
	<g transform="translate(599.7259,531.0476)">
		<path class="st10" d="M-88.8,18.5v6.1"/>
	</g>
	<g transform="translate(599.7259,531.0476)">
		<path class="st11" d="M-88.8,18.5v6.1"/>
	</g>
	<g>
		<path class="st7" d="M515.5,545.4v-9.7H510v9.7H515.5z"/>
	</g>
	<g>
		<path class="st8" d="M515.5,545.4H510v-9.7h5.4V545.4z"/>
		<line class="st9" x1="510" y1="540.5" x2="501.5" y2="540.5"/>
		<line class="st9" x1="510" y1="540.5" x2="511.8" y2="540.5"/>
	</g>
	<g transform="translate(590.4905,519.1429)">
		<path class="st10" d="M-89,18.3v6.1"/>
	</g>
	<g transform="translate(590.4905,519.1429)">
		<path class="st11" d="M-89,18.3v6.1"/>
	</g>
	<g transform="translate(600.5821,519.1429)">
		<path class="st10" d="M-88.8,18.3v6.1"/>
	</g>
	<g transform="translate(600.5821,519.1429)">
		<path class="st11" d="M-88.8,18.3v6.1"/>
	</g>
	<g>
		<path class="st7" d="M515.5,533.2v-9.7l0,0V533.2z"/>
	</g>
	<g>
		<path class="st8" d="M515.5,533.2L515.5,533.2v-9.7l0,0V533.2z"/>
		<line class="st9" x1="515.5" y1="528.4" x2="515.5" y2="528.4"/>
		<line class="st9" x1="515.5" y1="528.4" x2="515.5" y2="528.4"/>
	</g>
	<g transform="translate(604.1905,507.2381)">
		<path class="st10" d="M-88.7,18.1v6.1"/>
	</g>
	<g transform="translate(604.1905,507.2381)">
		<path class="st11" d="M-88.7,18.1v6.1"/>
	</g>
	<g transform="translate(604.1905,507.2381)">
		<path class="st10" d="M-88.7,18.1v6.1"/>
	</g>
	<g transform="translate(604.1905,507.2381)">
		<path class="st11" d="M-88.7,18.1v6.1"/>
	</g>
	<g>
		<path class="st12" d="M515.5,521.1v-9.7h-3v9.7H515.5z"/>
	</g>
	<g>
		<path class="st13" d="M515.5,521.1h-3v-9.7h3V521.1z"/>
		<line class="st14" x1="512.5" y1="516.3" x2="501.2" y2="516.3"/>
		<line class="st14" x1="512.5" y1="516.3" x2="520.7" y2="516.3"/>
	</g>
	<g transform="translate(590.1323,495.3333)">
		<path class="st15" d="M-89,17.9V24"/>
	</g>
	<g transform="translate(590.1323,495.3333)">
		<path class="st16" d="M-89,17.9V24"/>
	</g>
	<g transform="translate(609.3484,495.3333)">
		<path class="st15" d="M-88.6,17.9V24"/>
	</g>
	<g transform="translate(609.3484,495.3333)">
		<path class="st16" d="M-88.6,17.9V24"/>
	</g>
	<g>
		<path class="st12" d="M515.5,509v-9.7h-2.6v9.7H515.5z"/>
	</g>
	<g>
		<path class="st13" d="M515.5,509h-2.6v-9.7h2.6V509z"/>
		<line class="st14" x1="512.9" y1="504.1" x2="501.9" y2="504.1"/>
		<line class="st14" x1="512.9" y1="504.1" x2="521.5" y2="504.1"/>
	</g>
	<g transform="translate(590.8227,483.4286)">
		<path class="st15" d="M-89,17.7v6.1"/>
	</g>
	<g transform="translate(590.8227,483.4286)">
		<path class="st16" d="M-89,17.7v6.1"/>
	</g>
	<g transform="translate(610.1268,483.4286)">
		<path class="st15" d="M-88.6,17.7v6.1"/>
	</g>
	<g transform="translate(610.1268,483.4286)">
		<path class="st16" d="M-88.6,17.7v6.1"/>
	</g>
	<g>
		<path class="st17" d="M515.5,496.9v-9.7h-6.3v9.7H515.5z"/>
	</g>
	<g>
		<path class="st18" d="M515.5,496.9h-6.3v-9.7h6.3V496.9z"/>
		<line class="st19" x1="509.2" y1="492" x2="487" y2="492"/>
		<line class="st19" x1="509.2" y1="492" x2="510.9" y2="492"/>
	</g>
	<g transform="translate(576.2282,471.5238)">
		<path class="st20" d="M-89.2,17.4v6.1"/>
	</g>
	<g transform="translate(576.2282,471.5238)">
		<path class="st21" d="M-89.2,17.4v6.1"/>
	</g>
	<g transform="translate(599.6797,471.5238)">
		<path class="st20" d="M-88.8,17.4v6.1"/>
	</g>
	<g transform="translate(599.6797,471.5238)">
		<path class="st21" d="M-88.8,17.4v6.1"/>
	</g>
	<g>
		<path class="st17" d="M515.5,484.7V475h-0.4v9.7H515.5z"/>
	</g>
	<g>
		<path class="st18" d="M515.5,484.7h-0.4V475h0.4V484.7z"/>
		<line class="st19" x1="515.1" y1="479.9" x2="505.1" y2="479.9"/>
		<line class="st19" x1="515.1" y1="479.9" x2="517.6" y2="479.9"/>
	</g>
	<g transform="translate(594.0181,459.619)">
		<path class="st20" d="M-88.9,17.2v6.1"/>
	</g>
	<g transform="translate(594.0181,459.619)">
		<path class="st21" d="M-88.9,17.2v6.1"/>
	</g>
	<g transform="translate(606.2307,459.619)">
		<path class="st20" d="M-88.7,17.2v6.1"/>
	</g>
	<g transform="translate(606.2307,459.619)">
		<path class="st21" d="M-88.7,17.2v6.1"/>
	</g>
	<g>
		<path class="st17" d="M515.5,472.6v-9.7h-15.2v9.7H515.5z"/>
	</g>
	<g>
		<path class="st18" d="M515.5,472.6h-15.2v-9.7h15.2V472.6z"/>
		<line class="st19" x1="500.3" y1="467.8" x2="479.4" y2="467.8"/>
		<line class="st19" x1="500.3" y1="467.8" x2="511.6" y2="467.8"/>
	</g>
	<g transform="translate(568.7309,447.7143)">
		<path class="st20" d="M-89.4,17v6.1"/>
	</g>
	<g transform="translate(568.7309,447.7143)">
		<path class="st21" d="M-89.4,17v6.1"/>
	</g>
	<g transform="translate(600.3466,447.7143)">
		<path class="st20" d="M-88.8,17v6.1"/>
	</g>
	<g transform="translate(600.3466,447.7143)">
		<path class="st21" d="M-88.8,17v6.1"/>
	</g>
	<g>
		<path class="st17" d="M515.5,460.5v-9.7h-17.8v9.7H515.5z"/>
	</g>
	<g>
		<path class="st18" d="M515.5,460.5h-17.8v-9.7h17.8V460.5z"/>
		<line class="st19" x1="497.7" y1="455.6" x2="456.3" y2="455.6"/>
		<line class="st19" x1="497.7" y1="455.6" x2="507.4" y2="455.6"/>
	</g>
	<g transform="translate(546.046,435.8095)">
		<path class="st20" d="M-89.8,16.8v6.1"/>
	</g>
	<g transform="translate(546.046,435.8095)">
		<path class="st21" d="M-89.8,16.8v6.1"/>
	</g>
	<g transform="translate(596.2043,435.8095)">
		<path class="st20" d="M-88.9,16.8v6.1"/>
	</g>
	<g transform="translate(596.2043,435.8095)">
		<path class="st21" d="M-88.9,16.8v6.1"/>
	</g>
	<g>
		<path class="st22" d="M515.5,448.4v-9.7h-17.9v9.7H515.5z"/>
	</g>
	<g>
		<path class="st23" d="M515.5,448.4h-17.9v-9.7h17.9V448.4z"/>
		<line class="st24" x1="497.6" y1="443.5" x2="455.3" y2="443.5"/>
		<line class="st24" x1="497.6" y1="443.5" x2="504.4" y2="443.5"/>
	</g>
	<g transform="translate(545.1166,423.9048)">
		<path class="st25" d="M-89.8,16.5v6.1"/>
	</g>
	<g transform="translate(545.1166,423.9048)">
		<path class="st26" d="M-89.8,16.5v6.1"/>
	</g>
	<g transform="translate(593.3322,423.9048)">
		<path class="st25" d="M-88.9,16.5v6.1"/>
	</g>
	<g transform="translate(593.3322,423.9048)">
		<path class="st26" d="M-88.9,16.5v6.1"/>
	</g>
	<g>
		<line class="st27" x1="295.3" y1="686" x2="526.5" y2="686"/>
		<line class="st27" x1="295.3" y1="431.4" x2="526.5" y2="431.4"/>
		<line class="st27" x1="295.3" y1="686" x2="295.3" y2="683.5"/>
		<line class="st27" x1="405.4" y1="686" x2="405.4" y2="683.5"/>
		<line class="st27" x1="515.5" y1="686" x2="515.5" y2="683.5"/>
		<line class="st27" x1="295.3" y1="431.4" x2="295.3" y2="433.9"/>
		<line class="st27" x1="405.4" y1="431.4" x2="405.4" y2="433.9"/>
		<line class="st27" x1="515.5" y1="431.4" x2="515.5" y2="433.9"/>
	</g>
	<text transform="matrix(1 0 0 1 98.8475 52.6061)" class="st28 st29"> AIC</text>
	<text transform="matrix(0.583 0 0 0.583 131.9798 58.3918)" class="st28 st29">Bayes </text>
	<text transform="matrix(1 0 0 1 162.742 52.6061)" class="st28 st29">- AIC</text>
	<text transform="matrix(0.583 0 0 0.583 202.6331 58.3918)" class="st28 st29">Model</text>
	<text transform="matrix(1 0 0 1 91.4656 414.9093)" class="st28 st29"> BIC</text>
	<text transform="matrix(0.583 0 0 0.583 125.241 420.6955)" class="st28 st29">Bayes </text>
	<text transform="matrix(1 0 0 1 156.0032 414.9093)" class="st28 st29">- BIC</text>
	<text transform="matrix(0.583 0 0 0.583 196.5369 420.6955)" class="st28 st29">Model</text>
	<text transform="matrix(1 0 0 1 351.9188 53.2253)" class="st28 st29"> AIC</text>
	<text transform="matrix(0.583 0 0 0.583 385.0516 59.0109)" class="st28 st29">Best </text>
	<text transform="matrix(1 0 0 1 408.4998 53.2253)" class="st28 st29">- AIC</text>
	<text transform="matrix(0.583 0 0 0.583 448.3914 59.0109)" class="st28 st29">Model</text>
	<text transform="matrix(1 0 0 1 344.2479 414.5949)" class="st28 st29"> BIC</text>
	<text transform="matrix(0.583 0 0 0.583 378.0233 420.381)" class="st28 st29">Best </text>
	<text transform="matrix(1 0 0 1 401.4725 414.5949)" class="st28 st29">- BIC</text>
	<text transform="matrix(0.583 0 0 0.583 442.0057 420.381)" class="st28 st29">Model</text>
	<text transform="matrix(1 0 0 1 530.98 87.0111)" class="st28 st30">Bayes</text>
	<text transform="matrix(1 0 0 1 530.9801 137.5284)" class="st28 st30">MML</text>
	<text transform="matrix(1 0 0 1 530.9806 125.3524)" class="st28 st30">MMP</text>
	<text transform="matrix(1 0 0 1 530.98 113.1769)" class="st28 st30">Local density</text>
	<text transform="matrix(1 0 0 1 530.9806 101.001)" class="st28 st30">Centroid</text>
	<text transform="matrix(1 0 0 1 530.9806 160.0657)" class="st28 st30">Agglomerative clustering</text>
	<text transform="matrix(1 0 0 1 530.9803 149.7039)" class="st28 st30">MML</text>
	<text transform="matrix(1 0 0 1 530.981 247.1102)" class="st28 st30">MML + optimal z thresh</text>
	<text transform="matrix(1 0 0 1 530.9797 234.9344)" class="st28 st30">MMP + optimal z thresh</text>
	<text transform="matrix(1 0 0 1 530.9792 222.7587)" class="st28 st30">Local density + optimal z thresh</text>
	<text transform="matrix(1 0 0 1 530.981 210.5829)" class="st28 st30">Centroid + optimal z thresh</text>
	<text transform="matrix(1 0 0 1 530.9808 198.4072)" class="st28 st30">Agglomerative clustering</text>
	<text transform="matrix(1 0 0 1 530.9789 186.2315)" class="st28 st30">MJL</text>
	<text transform="matrix(1 0 0 1 530.9786 174.0559)" class="st28 st30">MJP</text>
	<text transform="matrix(1 0 0 1 530.9811 259.286)" class="st28 st30">Fraction of pts below NN threshold </text>
	<text transform="matrix(1 0 0 1 530.9786 271.4618)" class="st28 st30">Summed local density</text>
	<text transform="matrix(1 0 0 1 530.9788 283.6376)" class="st28 st30">Mean NN distance</text>
	<text transform="matrix(1 0 0 1 530.9787 295.8137)" class="st28 st30">Min NN distance</text>
	<text transform="matrix(1 0 0 1 530.9786 307.9892)" class="st28 st30">Max local density</text>
	<text transform="matrix(1 0 0 1 530.9783 320.165)" class="st28 st30">Global mean distance</text>
</g>
</svg>
