<?xml version="1.0" encoding="utf-8"?>
<!-- Generator: Adobe Illustrator 22.0.1, SVG Export Plug-In . SVG Version: 6.00 Build 0)  -->
<svg version="1.1" id="Layer_1" xmlns="http://www.w3.org/2000/svg" xmlns:xlink="http://www.w3.org/1999/xlink" x="0px" y="0px"
	 viewBox="0 0 774 445.5" style="enable-background:new 0 0 774 445.5;" xml:space="preserve">
<style type="text/css">
	.st0{clip-path:url(#SVGID_2_);fill:#FFFFFF;}
	.st1{fill:#FFFFFF;}
	.st2{fill:none;stroke:#262626;stroke-width:0.5;stroke-linecap:square;stroke-linejoin:round;stroke-miterlimit:10;}
	.st3{fill:#262626;}
	.st4{font-family:'HelveticaNeue';}
	.st5{font-size:24px;}
	.st6{font-size:26px;}
	.st7{fill:none;stroke:#08519C;stroke-width:2;stroke-linejoin:round;stroke-miterlimit:10;}
	.st8{fill:#08519C;}
	.st9{fill:none;stroke:#08519C;stroke-width:2;stroke-miterlimit:10;}
	.st10{fill:none;stroke:#3182BD;stroke-width:2;stroke-linejoin:round;stroke-miterlimit:10;}
	.st11{fill:#3182BD;}
	.st12{fill:none;stroke:#3182BD;stroke-width:2;stroke-miterlimit:10;}
	.st13{fill:none;stroke:#6BAED6;stroke-width:2;stroke-linejoin:round;stroke-miterlimit:10;}
	.st14{fill:#6BAED6;}
	.st15{fill:none;stroke:#6BAED6;stroke-width:2;stroke-miterlimit:10;}
	.st16{fill:none;stroke:#BDD7E7;stroke-width:2;stroke-linejoin:round;stroke-miterlimit:10;}
	.st17{fill:#BDD7E7;}
	.st18{fill:none;stroke:#BDD7E7;stroke-width:2;stroke-miterlimit:10;}
	.st19{fill:none;stroke:#FCAE91;stroke-width:2;stroke-linejoin:round;stroke-miterlimit:10;}
	.st20{fill:#FCAE91;}
	.st21{fill:none;stroke:#FCAE91;stroke-width:2;stroke-miterlimit:10;}
	.st22{fill:none;stroke:#FB6A4A;stroke-width:2;stroke-linejoin:round;stroke-miterlimit:10;}
	.st23{fill:#FB6A4A;}
	.st24{fill:none;stroke:#FB6A4A;stroke-width:2;stroke-miterlimit:10;}
	.st25{fill:none;stroke:#DE2D26;stroke-width:2;stroke-linejoin:round;stroke-miterlimit:10;}
	.st26{fill:#DE2D26;}
	.st27{fill:none;stroke:#DE2D26;stroke-width:2;stroke-miterlimit:10;}
	.st28{fill:none;stroke:#A50F15;stroke-width:2;stroke-linejoin:round;stroke-miterlimit:10;}
	.st29{fill:#A50F15;}
	.st30{fill:none;stroke:#A50F15;stroke-width:2;stroke-miterlimit:10;}
</style>
<g>
	<g>
		<g>
			<defs>
				<polyline id="SVGID_1_" points="774,394 0,394 0,0 				"/>
			</defs>
			<clipPath id="SVGID_2_">
				<use xlink:href="#SVGID_1_"  style="overflow:visible;"/>
			</clipPath>
			<polyline class="st0" points="774,394 0,394 0,0 			"/>
		</g>
	</g>
	<g>
		<rect class="st1" width="774" height="394"/>
	</g>
	<g>
		<line class="st2" x1="101" y1="351" x2="700" y2="351"/>
		<path class="st2" d="M101,38"/>
		<line class="st2" x1="101" y1="351" x2="101" y2="345"/>
		<line class="st2" x1="250.8" y1="351" x2="250.8" y2="345"/>
		<line class="st2" x1="400.5" y1="351" x2="400.5" y2="345"/>
		<line class="st2" x1="550.2" y1="351" x2="550.2" y2="345"/>
		<line class="st2" x1="700" y1="351" x2="700" y2="345"/>
		<line class="st2" x1="101" y1="38" x2="101" y2="44"/>
	</g>
	<g transform="translate(101,357.8)">
		<text transform="matrix(1 0 0 1 -11.5 23)" class="st3 st4 st5">-4</text>
	</g>
	<g transform="translate(250.75,357.8)">
		<text transform="matrix(1 0 0 1 -11.5 23)" class="st3 st4 st5">-2</text>
	</g>
	<g transform="translate(400.5,357.8)">
		<text transform="matrix(1 0 0 1 -7 23)" class="st3 st4 st5">0</text>
	</g>
	<g transform="translate(550.25,357.8)">
		<text transform="matrix(1 0 0 1 -7 23)" class="st3 st4 st5">2</text>
	</g>
	<g transform="translate(700,357.8)">
		<text transform="matrix(1 0 0 1 -7 23)" class="st3 st4 st5">4</text>
	</g>
	<g>
		<line class="st2" x1="101" y1="351" x2="101" y2="38"/>
		<path class="st2" d="M700,351"/>
		<line class="st2" x1="101" y1="351" x2="107" y2="351"/>
		<line class="st2" x1="101" y1="298.8" x2="107" y2="298.8"/>
		<line class="st2" x1="101" y1="246.7" x2="107" y2="246.7"/>
		<line class="st2" x1="101" y1="194.5" x2="107" y2="194.5"/>
		<line class="st2" x1="101" y1="142.3" x2="107" y2="142.3"/>
		<line class="st2" x1="101" y1="90.2" x2="107" y2="90.2"/>
		<line class="st2" x1="101" y1="38" x2="107" y2="38"/>
		<line class="st2" x1="700" y1="351" x2="694" y2="351"/>
		<path class="st2" d="M700,298.8"/>
	</g>
	<g transform="translate(94.2,351)">
		<text transform="matrix(1 0 0 1 -34 8.5)" class="st3 st4 st5">0.2</text>
	</g>
	<g transform="translate(94.2,298.8333)">
		<text transform="matrix(1 0 0 1 -34 8.5)" class="st3 st4 st5">0.4</text>
	</g>
	<g transform="translate(94.2,246.6667)">
		<text transform="matrix(1 0 0 1 -34 8.5)" class="st3 st4 st5">0.6</text>
	</g>
	<g transform="translate(94.2,194.5)">
		<text transform="matrix(1 0 0 1 -34 8.5)" class="st3 st4 st5">0.8</text>
	</g>
	<g transform="translate(94.2,142.3333)">
		<text transform="matrix(1 0 0 1 -14 8.5)" class="st3 st4 st5">1</text>
	</g>
	<g transform="translate(94.2,90.1667)">
		<text transform="matrix(1 0 0 1 -34 8.5)" class="st3 st4 st5">1.2</text>
	</g>
	<g transform="translate(94.2,38)">
		<text transform="matrix(1 0 0 1 -34 8.5)" class="st3 st4 st5">1.4</text>
	</g>
	<g transform="translate(57.2,194.4999) rotate(-90)">
		<text transform="matrix(1 0 0 1 -16.5001 -6)" class="st3 st4 st6">RT (s)</text>
	</g>
	<g>
		<line class="st7" x1="101" y1="260.9" x2="101" y2="281"/>
		<line class="st7" x1="101" y1="260.9" x2="101" y2="240.9"/>
		<circle class="st8" cx="101" cy="260.9" r="2.5"/>
	</g>
	<g transform="translate(101,280.9688)">
		<path class="st8" d="M-10,0h20"/>
	</g>
	<g transform="translate(101,280.9688)">
		<path class="st9" d="M-10,0h20"/>
	</g>
	<g transform="translate(101,240.9128)">
		<path class="st8" d="M-10,0h20"/>
	</g>
	<g transform="translate(101,240.9128)">
		<path class="st9" d="M-10,0h20"/>
	</g>
	<g>
		<line class="st10" x1="175.9" y1="217.2" x2="175.9" y2="242.9"/>
		<line class="st10" x1="175.9" y1="217.2" x2="175.9" y2="191.6"/>
		<circle class="st11" cx="175.9" cy="217.2" r="2.5"/>
	</g>
	<g transform="translate(175.875,242.9188)">
		<path class="st11" d="M-10,0h20"/>
	</g>
	<g transform="translate(175.875,242.9188)">
		<path class="st12" d="M-10,0h20"/>
	</g>
	<g transform="translate(175.875,191.5546)">
		<path class="st11" d="M-10,0h20"/>
	</g>
	<g transform="translate(175.875,191.5546)">
		<path class="st12" d="M-10,0h20"/>
	</g>
	<g>
		<line class="st13" x1="250.8" y1="146" x2="250.8" y2="201.4"/>
		<line class="st13" x1="250.8" y1="146" x2="250.8" y2="90.6"/>
		<circle class="st14" cx="250.8" cy="146" r="2.5"/>
	</g>
	<g transform="translate(250.75,201.3724)">
		<path class="st14" d="M-10,0h20"/>
	</g>
	<g transform="translate(250.75,201.3724)">
		<path class="st15" d="M-10,0h20"/>
	</g>
	<g transform="translate(250.75,90.6082)">
		<path class="st14" d="M-10,0h20"/>
	</g>
	<g transform="translate(250.75,90.6082)">
		<path class="st15" d="M-10,0h20"/>
	</g>
	<g>
		<line class="st16" x1="325.6" y1="104.5" x2="325.6" y2="160.9"/>
		<line class="st16" x1="325.6" y1="104.5" x2="325.6" y2="48.1"/>
		<circle class="st17" cx="325.6" cy="104.5" r="2.5"/>
	</g>
	<g transform="translate(325.625,160.907)">
		<path class="st17" d="M-10,0h20"/>
	</g>
	<g transform="translate(325.625,160.907)">
		<path class="st18" d="M-10,0h20"/>
	</g>
	<g transform="translate(325.625,48.1332)">
		<path class="st17" d="M-10,0h20"/>
	</g>
	<g transform="translate(325.625,48.1332)">
		<path class="st18" d="M-10,0h20"/>
	</g>
	<g>
		<line class="st19" x1="475.4" y1="101.8" x2="475.4" y2="151.5"/>
		<line class="st19" x1="475.4" y1="101.8" x2="475.4" y2="52.1"/>
		<circle class="st20" cx="475.4" cy="101.8" r="2.5"/>
	</g>
	<g transform="translate(475.375,151.5147)">
		<path class="st20" d="M-10,0h20"/>
	</g>
	<g transform="translate(475.375,151.5147)">
		<path class="st21" d="M-10,0h20"/>
	</g>
	<g transform="translate(475.375,52.0613)">
		<path class="st20" d="M-10,0h20"/>
	</g>
	<g transform="translate(475.375,52.0613)">
		<path class="st21" d="M-10,0h20"/>
	</g>
	<g>
		<line class="st22" x1="550.2" y1="185.2" x2="550.2" y2="224.8"/>
		<line class="st22" x1="550.2" y1="185.2" x2="550.2" y2="145.6"/>
		<circle class="st23" cx="550.2" cy="185.2" r="2.5"/>
	</g>
	<g transform="translate(550.25,224.8369)">
		<path class="st23" d="M-10,0h20"/>
	</g>
	<g transform="translate(550.25,224.8369)">
		<path class="st24" d="M-10,0h20"/>
	</g>
	<g transform="translate(550.25,145.6102)">
		<path class="st23" d="M-10,0h20"/>
	</g>
	<g transform="translate(550.25,145.6102)">
		<path class="st24" d="M-10,0h20"/>
	</g>
	<g>
		<line class="st25" x1="625.1" y1="256.5" x2="625.1" y2="273.4"/>
		<line class="st25" x1="625.1" y1="256.5" x2="625.1" y2="239.6"/>
		<circle class="st26" cx="625.1" cy="256.5" r="2.5"/>
	</g>
	<g transform="translate(625.125,273.4104)">
		<path class="st26" d="M-10,0h20"/>
	</g>
	<g transform="translate(625.125,273.4104)">
		<path class="st27" d="M-10,0h20"/>
	</g>
	<g transform="translate(625.125,239.6245)">
		<path class="st26" d="M-10,0h20"/>
	</g>
	<g transform="translate(625.125,239.6245)">
		<path class="st27" d="M-10,0h20"/>
	</g>
	<g>
		<line class="st28" x1="700" y1="283.3" x2="700" y2="307.8"/>
		<line class="st28" x1="700" y1="283.3" x2="700" y2="258.9"/>
		<circle class="st29" cx="700" cy="283.3" r="2.5"/>
	</g>
	<g transform="translate(700,307.808)">
		<path class="st29" d="M-10,0h20"/>
	</g>
	<g transform="translate(700,307.808)">
		<path class="st30" d="M-10,0h20"/>
	</g>
	<g transform="translate(700,258.8643)">
		<path class="st29" d="M-10,0h20"/>
	</g>
	<g transform="translate(700,258.8643)">
		<path class="st30" d="M-10,0h20"/>
	</g>
	<g transform="translate(57.2,194.4999) rotate(-90)">
		<text transform="matrix(0 1 -1 0 -229.2918 187.4238)" class="st3 st4 st6">Response (w/ confidence)</text>
	</g>
</g>
</svg>
